<mxfile host="app.diagrams.net" modified="2023-11-02T06:18:22.775Z" agent="Mozilla/5.0 (Macintosh; Intel Mac OS X 10_15_7) AppleWebKit/605.1.15 (KHTML, like Gecko) Version/17.0 Safari/605.1.15" etag="UZ8-xqr_9yehlJFPcdWq" version="22.0.8" type="github">
  <diagram name="第 1 页" id="NEgZ28rh5NVdIvEoO_7d">
    <mxGraphModel dx="700" dy="1549" grid="1" gridSize="10" guides="1" tooltips="1" connect="1" arrows="1" fold="1" page="1" pageScale="1" pageWidth="827" pageHeight="1169" math="0" shadow="0">
      <root>
        <mxCell id="0" />
        <mxCell id="1" parent="0" />
        <mxCell id="96zDIzDwZR1NqakOcuI8-1" value="" style="rounded=0;whiteSpace=wrap;html=1;dashed=1;fillColor=none;dashPattern=8 8;direction=south;" vertex="1" parent="1">
          <mxGeometry x="350" y="-520" width="220" height="390" as="geometry" />
        </mxCell>
        <mxCell id="96zDIzDwZR1NqakOcuI8-47" value="" style="group" vertex="1" connectable="0" parent="1">
          <mxGeometry x="380" y="-310" width="150" height="150" as="geometry" />
        </mxCell>
        <mxCell id="96zDIzDwZR1NqakOcuI8-3" value="" style="rounded=1;whiteSpace=wrap;html=1;fillColor=#FAE1B8;container=0;direction=south;" vertex="1" parent="96zDIzDwZR1NqakOcuI8-47">
          <mxGeometry x="10" y="70" width="140" height="80" as="geometry" />
        </mxCell>
        <mxCell id="96zDIzDwZR1NqakOcuI8-4" value="&lt;font style=&quot;font-size: 8px;&quot;&gt;Relu&lt;/font&gt;" style="rounded=1;whiteSpace=wrap;html=1;fillColor=#E0E0E0;container=0;direction=south;" vertex="1" parent="96zDIzDwZR1NqakOcuI8-47">
          <mxGeometry x="10" y="40" width="140" height="20" as="geometry" />
        </mxCell>
        <mxCell id="96zDIzDwZR1NqakOcuI8-5" value="&lt;font style=&quot;font-size: 8px;&quot;&gt;Dropout&lt;/font&gt;" style="rounded=1;whiteSpace=wrap;html=1;fillColor=#9E9E9E;container=0;direction=south;" vertex="1" parent="96zDIzDwZR1NqakOcuI8-47">
          <mxGeometry x="10" width="140" height="20" as="geometry" />
        </mxCell>
        <mxCell id="96zDIzDwZR1NqakOcuI8-6" style="edgeStyle=orthogonalEdgeStyle;rounded=0;orthogonalLoop=1;jettySize=auto;html=1;exitX=0;exitY=0.5;exitDx=0;exitDy=0;" edge="1" parent="96zDIzDwZR1NqakOcuI8-47" source="96zDIzDwZR1NqakOcuI8-4" target="96zDIzDwZR1NqakOcuI8-5">
          <mxGeometry relative="1" as="geometry" />
        </mxCell>
        <mxCell id="96zDIzDwZR1NqakOcuI8-7" value="X" style="ellipse;whiteSpace=wrap;html=1;aspect=fixed;container=0;" vertex="1" parent="96zDIzDwZR1NqakOcuI8-47">
          <mxGeometry x="70" y="120" width="20" height="20" as="geometry" />
        </mxCell>
        <mxCell id="96zDIzDwZR1NqakOcuI8-33" style="edgeStyle=orthogonalEdgeStyle;rounded=0;orthogonalLoop=1;jettySize=auto;html=1;exitX=0.5;exitY=0;exitDx=0;exitDy=0;entryX=1;entryY=0.5;entryDx=0;entryDy=0;" edge="1" parent="96zDIzDwZR1NqakOcuI8-47" source="96zDIzDwZR1NqakOcuI8-9" target="96zDIzDwZR1NqakOcuI8-4">
          <mxGeometry relative="1" as="geometry" />
        </mxCell>
        <mxCell id="96zDIzDwZR1NqakOcuI8-9" value="＋" style="ellipse;whiteSpace=wrap;html=1;aspect=fixed;container=0;" vertex="1" parent="96zDIzDwZR1NqakOcuI8-47">
          <mxGeometry x="70" y="80" width="20" height="20" as="geometry" />
        </mxCell>
        <mxCell id="96zDIzDwZR1NqakOcuI8-10" style="edgeStyle=orthogonalEdgeStyle;rounded=0;orthogonalLoop=1;jettySize=auto;html=1;exitX=0.5;exitY=0;exitDx=0;exitDy=0;entryX=0.5;entryY=1;entryDx=0;entryDy=0;" edge="1" parent="96zDIzDwZR1NqakOcuI8-47" source="96zDIzDwZR1NqakOcuI8-7" target="96zDIzDwZR1NqakOcuI8-9">
          <mxGeometry relative="1" as="geometry" />
        </mxCell>
        <mxCell id="96zDIzDwZR1NqakOcuI8-11" value="&lt;font style=&quot;font-size: 9px;&quot;&gt;graph_conv&lt;/font&gt;" style="rounded=0;whiteSpace=wrap;html=1;strokeColor=none;fillColor=none;container=0;" vertex="1" parent="96zDIzDwZR1NqakOcuI8-47">
          <mxGeometry y="70" width="70" height="30" as="geometry" />
        </mxCell>
        <mxCell id="96zDIzDwZR1NqakOcuI8-12" style="edgeStyle=orthogonalEdgeStyle;rounded=0;orthogonalLoop=1;jettySize=auto;html=1;exitX=1;exitY=0.5;exitDx=0;exitDy=0;" edge="1" parent="96zDIzDwZR1NqakOcuI8-47" source="96zDIzDwZR1NqakOcuI8-13">
          <mxGeometry relative="1" as="geometry">
            <mxPoint x="70" y="130" as="targetPoint" />
          </mxGeometry>
        </mxCell>
        <mxCell id="96zDIzDwZR1NqakOcuI8-13" value="&lt;font style=&quot;font-size: 10px;&quot;&gt;W&lt;/font&gt;" style="rounded=0;whiteSpace=wrap;html=1;strokeColor=none;fillColor=none;container=0;" vertex="1" parent="96zDIzDwZR1NqakOcuI8-47">
          <mxGeometry x="24" y="120" width="20" height="20" as="geometry" />
        </mxCell>
        <mxCell id="96zDIzDwZR1NqakOcuI8-14" style="edgeStyle=orthogonalEdgeStyle;rounded=0;orthogonalLoop=1;jettySize=auto;html=1;exitX=0;exitY=0.5;exitDx=0;exitDy=0;entryX=1;entryY=0.5;entryDx=0;entryDy=0;" edge="1" parent="96zDIzDwZR1NqakOcuI8-47" source="96zDIzDwZR1NqakOcuI8-15" target="96zDIzDwZR1NqakOcuI8-9">
          <mxGeometry relative="1" as="geometry" />
        </mxCell>
        <mxCell id="96zDIzDwZR1NqakOcuI8-15" value="&lt;font style=&quot;font-size: 10px;&quot;&gt;b&lt;br&gt;&lt;/font&gt;" style="rounded=0;whiteSpace=wrap;html=1;strokeColor=none;fillColor=none;container=0;" vertex="1" parent="96zDIzDwZR1NqakOcuI8-47">
          <mxGeometry x="120" y="80" width="20" height="20" as="geometry" />
        </mxCell>
        <mxCell id="96zDIzDwZR1NqakOcuI8-48" value="" style="group" vertex="1" connectable="0" parent="1">
          <mxGeometry x="380" y="-500" width="150" height="150" as="geometry" />
        </mxCell>
        <mxCell id="96zDIzDwZR1NqakOcuI8-34" value="" style="rounded=1;whiteSpace=wrap;html=1;fillColor=#FAE1B8;container=0;direction=south;" vertex="1" parent="96zDIzDwZR1NqakOcuI8-48">
          <mxGeometry x="10" y="70" width="140" height="80" as="geometry" />
        </mxCell>
        <mxCell id="96zDIzDwZR1NqakOcuI8-35" value="&lt;font style=&quot;font-size: 8px;&quot;&gt;Relu&lt;/font&gt;" style="rounded=1;whiteSpace=wrap;html=1;fillColor=#E0E0E0;container=0;direction=south;" vertex="1" parent="96zDIzDwZR1NqakOcuI8-48">
          <mxGeometry x="10" y="40" width="140" height="20" as="geometry" />
        </mxCell>
        <mxCell id="96zDIzDwZR1NqakOcuI8-36" value="&lt;font style=&quot;font-size: 8px;&quot;&gt;Dropout&lt;/font&gt;" style="rounded=1;whiteSpace=wrap;html=1;fillColor=#9E9E9E;container=0;direction=south;" vertex="1" parent="96zDIzDwZR1NqakOcuI8-48">
          <mxGeometry x="10" width="140" height="20" as="geometry" />
        </mxCell>
        <mxCell id="96zDIzDwZR1NqakOcuI8-37" style="edgeStyle=orthogonalEdgeStyle;rounded=0;orthogonalLoop=1;jettySize=auto;html=1;exitX=0;exitY=0.5;exitDx=0;exitDy=0;" edge="1" parent="96zDIzDwZR1NqakOcuI8-48" source="96zDIzDwZR1NqakOcuI8-35" target="96zDIzDwZR1NqakOcuI8-36">
          <mxGeometry relative="1" as="geometry" />
        </mxCell>
        <mxCell id="96zDIzDwZR1NqakOcuI8-38" value="X" style="ellipse;whiteSpace=wrap;html=1;aspect=fixed;container=0;" vertex="1" parent="96zDIzDwZR1NqakOcuI8-48">
          <mxGeometry x="70" y="120" width="20" height="20" as="geometry" />
        </mxCell>
        <mxCell id="96zDIzDwZR1NqakOcuI8-39" style="edgeStyle=orthogonalEdgeStyle;rounded=0;orthogonalLoop=1;jettySize=auto;html=1;exitX=0.5;exitY=0;exitDx=0;exitDy=0;entryX=1;entryY=0.5;entryDx=0;entryDy=0;" edge="1" parent="96zDIzDwZR1NqakOcuI8-48" source="96zDIzDwZR1NqakOcuI8-40" target="96zDIzDwZR1NqakOcuI8-35">
          <mxGeometry relative="1" as="geometry" />
        </mxCell>
        <mxCell id="96zDIzDwZR1NqakOcuI8-40" value="＋" style="ellipse;whiteSpace=wrap;html=1;aspect=fixed;container=0;" vertex="1" parent="96zDIzDwZR1NqakOcuI8-48">
          <mxGeometry x="70" y="80" width="20" height="20" as="geometry" />
        </mxCell>
        <mxCell id="96zDIzDwZR1NqakOcuI8-41" style="edgeStyle=orthogonalEdgeStyle;rounded=0;orthogonalLoop=1;jettySize=auto;html=1;exitX=0.5;exitY=0;exitDx=0;exitDy=0;entryX=0.5;entryY=1;entryDx=0;entryDy=0;" edge="1" parent="96zDIzDwZR1NqakOcuI8-48" source="96zDIzDwZR1NqakOcuI8-38" target="96zDIzDwZR1NqakOcuI8-40">
          <mxGeometry relative="1" as="geometry" />
        </mxCell>
        <mxCell id="96zDIzDwZR1NqakOcuI8-42" value="&lt;font style=&quot;font-size: 9px;&quot;&gt;graph_conv&lt;/font&gt;" style="rounded=0;whiteSpace=wrap;html=1;strokeColor=none;fillColor=none;container=0;" vertex="1" parent="96zDIzDwZR1NqakOcuI8-48">
          <mxGeometry y="70" width="70" height="30" as="geometry" />
        </mxCell>
        <mxCell id="96zDIzDwZR1NqakOcuI8-43" style="edgeStyle=orthogonalEdgeStyle;rounded=0;orthogonalLoop=1;jettySize=auto;html=1;exitX=1;exitY=0.5;exitDx=0;exitDy=0;" edge="1" parent="96zDIzDwZR1NqakOcuI8-48" source="96zDIzDwZR1NqakOcuI8-44">
          <mxGeometry relative="1" as="geometry">
            <mxPoint x="70" y="130" as="targetPoint" />
          </mxGeometry>
        </mxCell>
        <mxCell id="96zDIzDwZR1NqakOcuI8-44" value="&lt;font style=&quot;font-size: 10px;&quot;&gt;W&lt;/font&gt;" style="rounded=0;whiteSpace=wrap;html=1;strokeColor=none;fillColor=none;container=0;" vertex="1" parent="96zDIzDwZR1NqakOcuI8-48">
          <mxGeometry x="24" y="120" width="20" height="20" as="geometry" />
        </mxCell>
        <mxCell id="96zDIzDwZR1NqakOcuI8-45" style="edgeStyle=orthogonalEdgeStyle;rounded=0;orthogonalLoop=1;jettySize=auto;html=1;exitX=0;exitY=0.5;exitDx=0;exitDy=0;entryX=1;entryY=0.5;entryDx=0;entryDy=0;" edge="1" parent="96zDIzDwZR1NqakOcuI8-48" source="96zDIzDwZR1NqakOcuI8-46" target="96zDIzDwZR1NqakOcuI8-40">
          <mxGeometry relative="1" as="geometry" />
        </mxCell>
        <mxCell id="96zDIzDwZR1NqakOcuI8-46" value="&lt;font style=&quot;font-size: 10px;&quot;&gt;b&lt;br&gt;&lt;/font&gt;" style="rounded=0;whiteSpace=wrap;html=1;strokeColor=none;fillColor=none;container=0;" vertex="1" parent="96zDIzDwZR1NqakOcuI8-48">
          <mxGeometry x="120" y="80" width="20" height="20" as="geometry" />
        </mxCell>
        <mxCell id="96zDIzDwZR1NqakOcuI8-49" style="edgeStyle=orthogonalEdgeStyle;rounded=0;orthogonalLoop=1;jettySize=auto;html=1;exitX=0;exitY=0.5;exitDx=0;exitDy=0;entryX=1;entryY=0.5;entryDx=0;entryDy=0;endArrow=none;endFill=0;" edge="1" parent="1" source="96zDIzDwZR1NqakOcuI8-5" target="96zDIzDwZR1NqakOcuI8-34">
          <mxGeometry relative="1" as="geometry" />
        </mxCell>
        <mxCell id="96zDIzDwZR1NqakOcuI8-50" value="&lt;font style=&quot;font-size: 10px;&quot;&gt;意图槽位图神经网络&lt;/font&gt;" style="rounded=0;whiteSpace=wrap;html=1;strokeColor=none;fillColor=none;" vertex="1" parent="1">
          <mxGeometry x="350" y="-520" width="100" height="20" as="geometry" />
        </mxCell>
      </root>
    </mxGraphModel>
  </diagram>
</mxfile>
